<svg width="227" height="106" viewBox="0 0 227 106" fill="none" xmlns="http://www.w3.org/2000/svg">
<path d="M206.821 105.796H115.4C112.913 105.796 110.89 103.557 110.89 100.805V32.7927C110.88 32.2739 111.013 31.7624 111.276 31.3151C111.539 30.8678 111.921 30.5023 112.38 30.2595L146.927 9.33758C148.82 8.39727 150.905 7.90695 153.02 7.90481C155.134 7.90267 157.22 8.38877 159.115 9.32524L209.833 30.2573C210.293 30.4993 210.678 30.8649 210.942 31.3131C211.207 31.7613 211.342 32.2744 211.331 32.7949V100.805C211.331 103.557 209.308 105.796 206.821 105.796Z" fill="#F2F2F2"/>
<path d="M193.322 105.722H114.816C112.672 105.722 110.928 104.142 110.928 102.199V54.6582C110.938 54.262 111.067 53.878 111.298 53.5561C111.529 53.2342 111.851 52.9892 112.224 52.853L148.777 38.2252C152.136 36.8958 155.875 36.8939 159.235 38.2199L195.913 52.8537C196.285 52.9895 196.609 53.2345 196.84 53.5566C197.072 53.8787 197.201 54.2631 197.211 54.6597V102.199C197.211 104.142 195.466 105.722 193.322 105.722Z" fill="#DA8215"/>
<path d="M67.9936 55.797C74.3466 55.797 79.4968 50.6448 79.4968 44.2893C79.4968 37.9338 74.3466 32.7816 67.9936 32.7816C61.6405 32.7816 56.4904 37.9338 56.4904 44.2893C56.4904 50.6448 61.6405 55.797 67.9936 55.797Z" fill="#FF6584"/>
<path d="M72.8026 86.1866C80.849 86.1866 87.3719 78.0187 87.3719 67.943C87.3719 57.8674 80.849 49.6995 72.8026 49.6995C64.7562 49.6995 58.2333 57.8674 58.2333 67.943C58.2333 78.0187 64.7562 86.1866 72.8026 86.1866Z" fill="#F2F2F2"/>
<path d="M72.8426 64.2746H72.8826L73.6031 105.597H72.0822L72.8426 64.2746Z" fill="#CCCCCC"/>
<path d="M75.3276 91.6313C75.3721 91.7159 75.3812 91.8147 75.3529 91.906C75.3246 91.9972 75.2612 92.0735 75.1767 92.1181L73.0871 93.2186L72.7515 92.5809L74.8411 91.4803C74.9256 91.4358 75.0244 91.4267 75.1156 91.455C75.2069 91.4833 75.2831 91.5467 75.3276 91.6313Z" fill="#CCCCCC"/>
<path d="M30.9163 86.1866C38.9627 86.1866 45.4856 78.0187 45.4856 67.943C45.4856 57.8674 38.9627 49.6995 30.9163 49.6995C22.8699 49.6995 16.347 57.8674 16.347 67.943C16.347 78.0187 22.8699 86.1866 30.9163 86.1866Z" fill="#F2F2F2"/>
<path d="M33.4414 92.3145C33.3968 92.2299 33.3206 92.1665 33.2293 92.1382C33.138 92.1099 33.0393 92.119 32.9547 92.1635L31.4959 92.9318L30.9963 64.2745H30.9563L30.1959 105.597H31.7168L31.5101 93.739L33.2904 92.8013C33.3749 92.7567 33.4383 92.6804 33.4666 92.5891C33.4949 92.4979 33.4858 92.3991 33.4414 92.3145Z" fill="#CCCCCC"/>
<path d="M51.8087 25.8999C62.0044 25.8999 70.2914 45.1185 70.2914 57.8854C70.2914 70.6523 62.0262 81.0019 51.8305 81.0019C41.6349 81.0019 33.3697 70.6523 33.3697 57.8854C33.3697 45.1185 41.6131 25.8999 51.8087 25.8999Z" fill="#DA8215"/>
<path d="M55.03 88.7666C55.0021 88.7136 54.964 88.6665 54.9179 88.6282C54.8718 88.5899 54.8186 88.561 54.7614 88.5432C54.7041 88.5255 54.6439 88.5192 54.5842 88.5247C54.5246 88.5302 54.4665 88.5474 54.4135 88.5753L52.565 89.5489L51.932 53.237H51.8813L50.9177 105.597H52.8449L52.5829 90.5715L54.8388 89.3834C54.8918 89.3555 54.9389 89.3174 54.9772 89.2713C55.0155 89.2251 55.0443 89.1719 55.0621 89.1146C55.0799 89.0574 55.0862 88.9972 55.0806 88.9374C55.0751 88.8777 55.0579 88.8197 55.03 88.7666Z" fill="#3F3D56"/>
<path d="M135.739 73.0515V68.1345C135.739 67.4932 135.484 66.8782 135.031 66.4247C134.578 65.9713 133.963 65.7165 133.322 65.7165H120.919C120.278 65.7165 119.663 65.9713 119.21 66.4247C118.757 66.8782 118.502 67.4932 118.502 68.1345V73.0515H135.739Z" fill="white"/>
<path d="M118.502 73.8236V81.4429C118.502 82.0842 118.757 82.6992 119.21 83.1527C119.663 83.6061 120.278 83.8609 120.919 83.8609H133.322C133.963 83.8609 134.578 83.6061 135.031 83.1527C135.484 82.6992 135.739 82.0842 135.739 81.4429V73.8236H118.502Z" fill="white"/>
<path d="M194.225 59.5553L156.988 45.8998C154.725 45.0698 152.241 45.0698 149.978 45.8998L112.741 59.5553C111.956 59.8431 111.113 59.9372 110.284 59.8294C109.456 59.7217 108.665 59.4154 107.98 58.9366C107.294 58.4577 106.735 57.8205 106.348 57.079C105.962 56.3375 105.76 55.5136 105.76 54.6774C105.76 53.6133 106.087 52.5748 106.696 51.7024C107.305 50.83 108.167 50.1658 109.166 49.7995L149.978 34.8331C152.241 34.0031 154.725 34.0031 156.988 34.8331L197.8 49.7995C198.799 50.1658 199.661 50.83 200.27 51.7024C200.879 52.5748 201.206 53.6133 201.206 54.6774C201.206 55.5136 201.004 56.3375 200.618 57.079C200.231 57.8205 199.672 58.4577 198.986 58.9366C198.301 59.4154 197.511 59.7217 196.682 59.8294C195.853 59.9372 195.01 59.8431 194.225 59.5553Z" fill="#3F3D56"/>
<path d="M159.496 105.95H149.543C148.487 105.949 147.475 105.528 146.728 104.781C145.981 104.034 145.561 103.021 145.56 101.965V77.8532C145.561 76.7966 145.981 75.7837 146.728 75.0365C147.475 74.2894 148.487 73.8691 149.543 73.8679H159.496C160.552 73.8691 161.564 74.2894 162.311 75.0365C163.058 75.7837 163.478 76.7966 163.479 77.8532V101.965C163.478 103.021 163.058 104.034 162.311 104.781C161.564 105.528 160.552 105.949 159.496 105.95ZM149.543 74.5511C148.668 74.5521 147.829 74.9004 147.21 75.5194C146.592 76.1385 146.244 76.9778 146.243 77.8532V101.965C146.244 102.84 146.592 103.679 147.21 104.298C147.829 104.917 148.668 105.266 149.543 105.267H159.496C160.371 105.266 161.21 104.917 161.829 104.298C162.447 103.679 162.795 102.84 162.796 101.965V77.8532C162.795 76.9778 162.447 76.1385 161.829 75.5194C161.21 74.9004 160.371 74.5521 159.496 74.5511H149.543Z" fill="#3F3D56"/>
<path d="M160.461 22.5868C160.301 20.7943 159.476 19.1266 158.148 17.9121C156.82 16.6975 155.087 16.024 153.288 16.024C151.489 16.024 149.755 16.6975 148.427 17.9121C147.1 19.1266 146.275 20.7943 146.114 22.5868H160.461Z" fill="white"/>
<path d="M146.087 23.3589C146.121 25.2474 146.894 27.0472 148.24 28.371C149.587 29.6947 151.4 30.4365 153.288 30.4365C155.176 30.4365 156.988 29.6947 158.335 28.371C159.681 27.0472 160.455 25.2474 160.488 23.3589H146.087Z" fill="white"/>
<path d="M159.333 31.3225H147.242C146.666 31.3225 146.113 31.0936 145.706 30.6861C145.299 30.2786 145.07 29.726 145.07 29.1497C145.07 28.5734 145.299 28.0208 145.706 27.6133C146.113 27.2058 146.666 26.9769 147.242 26.9769H159.333C159.909 26.9769 160.462 27.2058 160.869 27.6133C161.276 28.0208 161.505 28.5734 161.505 29.1497C161.505 29.726 161.276 30.2786 160.869 30.6861C160.462 31.0936 159.909 31.3225 159.333 31.3225Z" fill="#CCCCCC"/>
<path d="M118.631 81.4011C118.115 81.4011 117.621 81.606 117.256 81.9708C116.891 82.3355 116.687 82.8303 116.687 83.3461C116.687 83.862 116.891 84.3567 117.256 84.7215C117.621 85.0862 118.115 85.2912 118.631 85.2912H135.61C136.126 85.2912 136.621 85.0862 136.985 84.7215C137.35 84.3567 137.555 83.862 137.555 83.3461C137.555 82.8303 137.35 82.3355 136.985 81.9708C136.621 81.606 136.126 81.4011 135.61 81.4011H118.631Z" fill="#CCCCCC"/>
<path d="M171.37 73.8236V81.4429C171.37 82.0842 171.625 82.6992 172.078 83.1527C172.532 83.6061 173.146 83.8609 173.787 83.8609H186.19C186.831 83.8609 187.446 83.6061 187.899 83.1527C188.353 82.6992 188.607 82.0842 188.607 81.4429V73.8236H171.37Z" fill="white"/>
<path d="M188.607 73.0515V68.1345C188.607 67.4932 188.353 66.8782 187.899 66.4247C187.446 65.9713 186.831 65.7165 186.19 65.7165H173.787C173.146 65.7165 172.532 65.9713 172.078 66.4247C171.625 66.8782 171.37 67.4932 171.37 68.1345V73.0515H188.607Z" fill="white"/>
<path d="M160.437 90.6811C161.218 90.6811 161.852 90.0474 161.852 89.2656C161.852 88.4838 161.218 87.8501 160.437 87.8501C159.655 87.8501 159.022 88.4838 159.022 89.2656C159.022 90.0474 159.655 90.6811 160.437 90.6811Z" fill="#3F3D56"/>
<path d="M112.908 90.1766L107.334 81.5037L107.592 81.3376L112.881 89.5677L117.19 81.3495L117.462 81.4918L112.908 90.1766Z" fill="#3F3D56"/>
<path d="M117.446 78.6606H104.188V78.4306C104.188 78.0581 104.114 77.6892 103.972 77.345C103.829 77.0008 103.62 76.6881 103.357 76.4247C103.094 76.1613 102.781 75.9523 102.437 75.8098C102.093 75.6672 101.724 75.5938 101.352 75.5938C100.98 75.5938 100.611 75.6672 100.267 75.8098C99.9229 75.9523 99.6103 76.1613 99.347 76.4247C99.0837 76.6881 98.8748 77.0008 98.7323 77.345C98.5898 77.6892 98.5165 78.0581 98.5165 78.4306V78.6606H97.2136C96.4616 78.6606 95.7403 78.9595 95.2085 79.4915C94.6767 80.0234 94.378 80.745 94.378 81.4973C94.378 82.2497 94.6767 82.9712 95.2085 83.5032C95.7403 84.0352 96.4616 84.3341 97.2136 84.3341H98.5165V105.772C104.167 105.658 98.4756 105.886 104.188 105.772V84.3341H117.446C118.198 84.3341 118.919 84.0352 119.451 83.5032C119.983 82.9712 120.282 82.2497 120.282 81.4973C120.282 80.745 119.983 80.0234 119.451 79.4915C118.919 78.9595 118.198 78.6606 117.446 78.6606Z" fill="#3F3D56"/>
<path d="M101.275 82.494C101.868 82.494 102.348 82.0134 102.348 81.4206C102.348 80.8278 101.868 80.3473 101.275 80.3473C100.683 80.3473 100.203 80.8278 100.203 81.4206C100.203 82.0134 100.683 82.494 101.275 82.494Z" fill="white"/>
<path d="M119.131 95.6415H106.871C106.292 95.6409 105.737 95.4105 105.327 95.0008C104.918 94.5912 104.688 94.0358 104.687 93.4565V89.4719C104.688 88.8926 104.918 88.3372 105.327 87.9276C105.737 87.518 106.292 87.2876 106.871 87.2869H119.131C119.71 87.2876 120.265 87.518 120.675 87.9276C121.084 88.3372 121.315 88.8926 121.315 89.4719V93.4565C121.315 94.0358 121.084 94.5912 120.675 95.0008C120.265 95.4105 119.71 95.6409 119.131 95.6415Z" fill="#CCCCCC"/>
<path d="M116.833 90.4675H109.016C108.55 90.4675 108.173 90.8451 108.173 91.3109C108.173 91.7767 108.55 92.1542 109.016 92.1542H116.833C117.299 92.1542 117.676 91.7767 117.676 91.3109C117.676 90.8451 117.299 90.4675 116.833 90.4675Z" fill="#DA8215"/>
<path d="M188.35 85.5189H171.37C170.794 85.5189 170.242 85.29 169.835 84.8825C169.427 84.475 169.198 83.9224 169.198 83.3461C169.198 82.7699 169.427 82.2172 169.835 81.8097C170.242 81.4023 170.794 81.1733 171.37 81.1733H188.35C188.926 81.1733 189.478 81.4023 189.886 81.8097C190.293 82.2172 190.522 82.7699 190.522 83.3461C190.522 83.9224 190.293 84.475 189.886 84.8825C189.478 85.29 188.926 85.5189 188.35 85.5189Z" fill="#CCCCCC"/>
<path d="M211.159 35.0615C211.159 35.0615 207.041 34.7693 198.638 34.3783C188.622 16.8429 156.068 12.6162 156.068 3.12742e-05V0H196.08C200.084 0 203.923 1.59093 206.754 4.42279C209.585 7.25466 211.175 11.0955 211.175 15.1004L211.159 35.0615Z" fill="#CCCCCC"/>
<path d="M176.456 4.61012C176.365 4.61022 176.279 4.64624 176.215 4.71028C176.15 4.77432 176.114 4.86115 176.114 4.95172V16.3566C176.114 16.4471 176.15 16.5339 176.215 16.598C176.279 16.662 176.365 16.6981 176.456 16.6982H183.557C183.648 16.6981 183.735 16.662 183.799 16.598C183.863 16.5339 183.899 16.4471 183.899 16.3566V4.95172C183.899 4.86115 183.863 4.77432 183.799 4.71028C183.735 4.64624 183.648 4.61022 183.557 4.61012H176.456Z" fill="#F2F2F2"/>
<path d="M196.179 34.1418L158.942 11.6892C156.679 10.8593 154.195 10.8593 151.932 11.6892L114.695 34.1418C113.91 34.4296 113.067 34.5236 112.239 34.4159C111.41 34.3082 110.619 34.0019 109.934 33.523C109.248 33.0442 108.689 32.407 108.302 31.6654C107.916 30.9239 107.714 30.1001 107.714 29.2639C107.714 28.1997 108.041 27.1612 108.65 26.2889C109.259 25.4165 110.121 24.7522 111.12 24.386L151.932 0.622479C154.195 -0.207493 156.679 -0.207493 158.942 0.622479L199.754 24.386C200.753 24.7522 201.615 25.4164 202.224 26.2888C202.833 27.1612 203.16 28.1997 203.16 29.2639C203.16 30.1001 202.958 30.9239 202.572 31.6654C202.186 32.4069 201.626 33.0442 200.941 33.523C200.255 34.0019 199.465 34.3082 198.636 34.4159C197.807 34.5236 196.964 34.4296 196.179 34.1418Z" fill="#CCCCCC"/>
</svg>
