<svg width="165" height="165" viewBox="0 0 165 165" fill="none" xmlns="http://www.w3.org/2000/svg">
<path d="M82.0956 150.846C90.5951 150.846 97.8936 145.704 101.051 138.363C102.167 135.767 105.854 134.24 108.478 135.286C115.903 138.245 124.699 136.72 130.709 130.709C136.719 124.699 138.244 115.903 135.286 108.479C134.24 105.854 135.767 102.167 138.363 101.051C145.704 97.8936 150.846 90.5951 150.846 82.0956C150.846 73.596 145.704 66.2978 138.363 63.14C135.767 62.0237 134.24 58.3369 135.286 55.7125C138.245 48.288 136.72 39.492 130.709 33.482C124.699 27.4721 115.903 25.9465 108.479 28.9051C105.854 29.951 102.167 28.4238 101.051 25.8285C97.8936 18.4866 90.5951 13.3456 82.0956 13.3456C73.596 13.3456 66.2978 18.4865 63.14 25.8284C62.0237 28.4237 58.3369 29.9508 55.7125 28.905C48.288 25.9464 39.492 27.4719 33.482 33.4818C27.4721 39.4918 25.9465 48.2878 28.9051 55.7123C29.951 58.3367 28.4238 62.0237 25.8285 63.14C18.4866 66.2977 13.3456 73.596 13.3456 82.0956C13.3456 90.5951 18.4865 97.8936 25.8284 101.051C28.4237 102.167 29.9508 105.854 28.905 108.478C25.9464 115.903 27.4719 124.699 33.4818 130.709C39.4918 136.719 48.2878 138.244 55.7123 135.286C58.3367 134.24 62.0237 135.767 63.14 138.363C66.2977 145.704 73.596 150.846 82.0956 150.846Z" fill="#1293A9" stroke="#1293A9" stroke-width="5" stroke-linecap="square"/>
<path d="M55 85.9375L72.1875 103.125L110 65.3125" stroke="white" stroke-width="5" stroke-linecap="square"/>
</svg>
